<?xml version="1.0" encoding="UTF-8"?>
<svg height="128px" viewBox="0 0 128 128" width="128px" xmlns="http://www.w3.org/2000/svg">
    <path d="m 29.617188 17.828125 h 68.765624 c 3.101563 0 5.617188 2.113281 5.617188 4.722656 v 86.726563 c 0 2.609375 -2.515625 4.722656 -5.617188 4.722656 h -68.765624 c -3.101563 0 -5.617188 -2.113281 -5.617188 -4.722656 v -86.726563 c 0 -2.609375 2.515625 -4.722656 5.617188 -4.722656 z m 0 0" fill="#1a5fb4"/>
    <path d="m 24 17.304688 h 10 v 96.695312 h -10 z m 0 0" fill="#3d3846"/>
    <path d="m 29.648438 15.203125 h 67.453124 c 3.121094 0 5.648438 2.128906 5.648438 4.75 v 87.195313 c 0 2.621093 -2.527344 4.75 -5.648438 4.75 h -67.453124 c -3.121094 0 -5.648438 -2.128907 -5.648438 -4.75 v -87.195313 c 0 -2.621094 2.527344 -4.75 5.648438 -4.75 z m 0 0" fill="#deddda"/>
    <path d="m 24.035156 107.695312 h 9.964844 v 4.203126 h -9.964844 z m 0 0" fill="#deddda"/>
    <path d="m 24 17.304688 h 2.5 v 96.695312 h -2.5 z m 0 0" fill="#3d3846"/>
    <path d="m 29.648438 11 h 68.703124 c 3.121094 0 5.648438 2.125 5.648438 4.75 v 87.195312 c 0 2.621094 -2.527344 4.75 -5.648438 4.75 h -68.703124 c -3.121094 0 -5.648438 -2.128906 -5.648438 -4.75 v -87.195312 c 0 -2.625 2.527344 -4.75 5.648438 -4.75 z m 0 0" fill="#1a5fb4"/>
    <path d="m 29.527344 11 h 68.945312 c 3.054688 0 5.527344 2.082031 5.527344 4.648438 v 85.296874 c 0 2.566407 -2.472656 4.648438 -5.527344 4.648438 h -68.945312 c -3.054688 0 -5.527344 -2.082031 -5.527344 -4.648438 v -85.296874 c 0 -2.566407 2.472656 -4.648438 5.527344 -4.648438 z m 0 0" fill="#3584e4"/>
    <path d="m 24 11 h 10 v 96.695312 h -10 z m 0 0" fill="#3d3846"/>
    <path d="m 24 11 h 10 v 94.59375 h -10 z m 0 0" fill="#5e5c64"/>
    <path d="m 42 2 h -28 v 30" fill="none" stroke="#deddda" stroke-linecap="round" stroke-linejoin="round" stroke-width="3.26929"/>
    <path d="m 43 40 h 50 c 0.550781 0 1 0.449219 1 1 v 54 c 0 0.550781 -0.449219 1 -1 1 h -50 c -0.550781 0 -1 -0.449219 -1 -1 v -54 c 0 -0.550781 0.449219 -1 1 -1 z m 0 0" fill="#1c71d8"/>
    <path d="m 43 22 h 50 c 0.550781 0 1 0.449219 1 1 v 8 c 0 0.550781 -0.449219 1 -1 1 h -50 c -0.550781 0 -1 -0.449219 -1 -1 v -8 c 0 -0.550781 0.449219 -1 1 -1 z m 0 0" fill="#1c71d8"/>
    <path d="m 86 124 h 28 v -30" fill="none" stroke="#deddda" stroke-linecap="round" stroke-linejoin="round" stroke-width="3.26929"/>
</svg>
